<svg width="34" height="34" viewBox="0 0 34 34" fill="none" xmlns="http://www.w3.org/2000/svg">
<g clip-path="url(#clip0_310_21)">
<path d="M16.6736 14.2761C15.1829 14.2761 13.9806 15.4785 13.9806 16.9691C13.9806 18.4597 15.1829 19.6621 16.6736 19.6621C18.1642 19.6621 19.3665 18.4597 19.3665 16.9691C19.3665 15.4785 18.1642 14.2761 16.6736 14.2761ZM16.6736 18.7199C15.7103 18.7199 14.9228 17.9347 14.9228 16.9691C14.9228 16.0035 15.7079 15.2183 16.6736 15.2183C17.6392 15.2183 18.4243 16.0035 18.4243 16.9691C18.4243 17.9347 17.6368 18.7199 16.6736 18.7199V18.7199ZM20.1048 14.166C20.1048 14.5152 19.8236 14.7941 19.4767 14.7941C19.1275 14.7941 18.8486 14.5129 18.8486 14.166C18.8486 13.8191 19.1298 13.5379 19.4767 13.5379C19.8236 13.5379 20.1048 13.8191 20.1048 14.166ZM21.8884 14.8035C21.8486 13.9621 21.6564 13.2168 21.04 12.6027C20.4259 11.9886 19.6806 11.7964 18.8392 11.7543C17.972 11.705 15.3728 11.705 14.5056 11.7543C13.6665 11.7941 12.9212 11.9863 12.3048 12.6004C11.6884 13.2144 11.4986 13.9597 11.4564 14.8011C11.4072 15.6683 11.4072 18.2675 11.4564 19.1347C11.4962 19.9761 11.6884 20.7214 12.3048 21.3355C12.9212 21.9496 13.6642 22.1418 14.5056 22.1839C15.3728 22.2332 17.972 22.2332 18.8392 22.1839C19.6806 22.1441 20.4259 21.9519 21.04 21.3355C21.654 20.7214 21.8462 19.9761 21.8884 19.1347C21.9376 18.2675 21.9376 15.6707 21.8884 14.8035V14.8035ZM20.7681 20.0652C20.5853 20.5246 20.2314 20.8785 19.7697 21.0636C19.0783 21.3379 17.4376 21.2746 16.6736 21.2746C15.9095 21.2746 14.2665 21.3355 13.5775 21.0636C13.1181 20.8808 12.7642 20.5269 12.579 20.0652C12.3048 19.3738 12.3681 17.7332 12.3681 16.9691C12.3681 16.205 12.3072 14.5621 12.579 13.873C12.7618 13.4136 13.1158 13.0597 13.5775 12.8746C14.2689 12.6004 15.9095 12.6636 16.6736 12.6636C17.4376 12.6636 19.0806 12.6027 19.7697 12.8746C20.229 13.0574 20.5829 13.4113 20.7681 13.873C21.0423 14.5644 20.979 16.205 20.979 16.9691C20.979 17.7332 21.0423 19.3761 20.7681 20.0652Z" fill="hsl(223, 87%, 43%)" />
</g>
<circle cx="16.6712" cy="16.9714" r="16" stroke="#F2F3F8"/>
<defs>
<clipPath id="clip0_310_21">
<rect width="12" height="12" fill="white" transform="translate(10.6712 10.9714)"/>
</clipPath>
</defs>
</svg>
