<svg width="34" height="34" viewBox="0 0 34 34" fill="none" xmlns="http://www.w3.org/2000/svg">
<g clip-path="url(#clip0_310_20)">
<path d="M21.8561 15.0272C21.8637 15.1338 21.8637 15.2405 21.8637 15.3471C21.8637 18.5983 19.3891 22.3445 14.8662 22.3445C13.4728 22.3445 12.1784 21.9409 11.0896 21.2405C11.2876 21.2633 11.4779 21.2709 11.6835 21.2709C12.8332 21.2709 13.8916 20.8826 14.7368 20.2202C13.6556 20.1973 12.7495 19.4892 12.4373 18.5146C12.5896 18.5374 12.7419 18.5526 12.9018 18.5526C13.1226 18.5526 13.3434 18.5222 13.549 18.4689C12.4221 18.2404 11.5769 17.2506 11.5769 16.0552V16.0247C11.9043 16.2075 12.285 16.3217 12.6886 16.3369C12.0261 15.8953 11.5921 15.1415 11.5921 14.2887C11.5921 13.8318 11.7139 13.413 11.9271 13.0476C13.1378 14.5399 14.9576 15.5145 16.9982 15.6212C16.9601 15.4384 16.9373 15.2481 16.9373 15.0577C16.9373 13.7024 18.0337 12.5983 19.3967 12.5983C20.1048 12.5983 20.7444 12.8953 21.1936 13.375C21.7494 13.2684 22.2824 13.0628 22.7545 12.7811C22.5718 13.3521 22.1835 13.8318 21.6733 14.1364C22.1682 14.0831 22.6479 13.946 23.0896 13.7557C22.7546 14.243 22.3358 14.677 21.8561 15.0272V15.0272Z" fill="#587AD1"/>
</g>
<circle cx="17.0896" cy="17.4714" r="16" stroke="#F2F3F8"/>
<defs>
<clipPath id="clip0_310_20">
<rect width="12" height="12" fill="white" transform="translate(11.0896 11.4714)"/>
</clipPath>
</defs>
</svg>
